<?xml version="1.0" standalone="no"?>
<!DOCTYPE svg PUBLIC "-//W3C//DTD SVG 1.1//EN" "http://www.w3.org/Graphics/SVG/1.1/DTD/svg11.dtd">
<svg t="1775293814008" class="icon" viewBox="0 0 1024 1024" version="1.1" xmlns="http://www.w3.org/2000/svg" p-id="1486" xmlns:xlink="http://www.w3.org/1999/xlink" width="200" height="200">
  <path d="M25.3830637 892.59425185V131.40574815q0-40.70028325 28.73874963-69.4390329 28.81642192-28.81642192 69.51670519-28.81642192h248.55134815q40.70028325 0 69.43903288 28.73874964 28.81642192 28.81642192 28.81642193 69.51670518v761.1885037q0 40.70028325-28.73874963 69.4390329-28.81642192 28.81642192-69.51670518 28.81642192H123.63851852q-40.70028325 0-69.43903289-28.73874964-28.81642192-28.81642192-28.81642193-69.51670518z m103.30415408 0q0-5.04869925-5.04869926-5.04869926h248.55134815q-5.04869925 0-5.04869926 5.04869926V131.40574815q0 5.04869925 5.04869926 5.04869926H123.63851852q5.04869925 0 5.04869926-5.04869926v761.1885037z" fill="#047FFE" p-id="1487" />
  <path d="M553.55467852 892.59425185V131.40574815q0-40.70028325 28.73874963-69.4390329 28.81642192-28.81642192 69.51670518-28.81642192H900.36148148q40.70028325 0 69.43903289 28.73874964 28.81642192 28.81642192 28.81642193 69.51670518v761.1885037q0 40.70028325-28.73874963 69.4390329-28.81642192 28.81642192-69.51670519 28.81642192H651.81013333q-40.70028325 0-69.43903288-28.73874964-28.81642192-28.81642192-28.81642193-69.51670518z m103.30415407 0q0-5.04869925-5.04869926-5.04869926H900.36148148q-5.04869925 0-5.04869926 5.04869926V131.40574815q0 5.04869925 5.04869926 5.04869926H651.81013333q5.04869925 0 5.04869926-5.04869926v761.1885037z" fill="#047FFE" fill-opacity=".8" p-id="1488" />
</svg>
